<svg width="512" height="512" viewBox="0 0 512 512" fill="none" xmlns="http://www.w3.org/2000/svg">
<rect x="2" y="2" width="508" height="508" rx="4" fill="white"/>
<line x1="254" y1="512" x2="254" y2="-0.000457764" stroke="#22282E" stroke-width="4"/>
<line y1="254" x2="512.001" y2="254" stroke="#22282E" stroke-width="4"/>
<path d="M386 452C352.862 452 326 425.138 326 392C326 358.862 352.862 332 386 332C419.138 332 446 358.862 446 392C446 425.138 419.138 452 386 452ZM386 440C398.73 440 410.939 434.943 419.941 425.941C428.943 416.939 434 404.73 434 392C434 379.27 428.943 367.061 419.941 358.059C410.939 349.057 398.73 344 386 344C373.27 344 361.061 349.057 352.059 358.059C343.057 367.061 338 379.27 338 392C338 404.73 343.057 416.939 352.059 425.941C361.061 434.943 373.27 440 386 440Z" fill="#5ACCDC"/>
<path d="M126 180C92.862 180 66 153.138 66 120C66 86.862 92.862 60 126 60C159.138 60 186 86.862 186 120C186 153.138 159.138 180 126 180ZM126 168C138.73 168 150.939 162.943 159.941 153.941C168.943 144.939 174 132.73 174 120C174 107.27 168.943 95.0606 159.941 86.0589C150.939 77.0571 138.73 72 126 72C113.27 72 101.061 77.0571 92.0589 86.0589C83.0571 95.0606 78 107.27 78 120C78 132.73 83.0571 144.939 92.0589 153.941C101.061 162.943 113.27 168 126 168Z" fill="#5ACCDC"/>
<path d="M386 106.669L432.669 60L446 73.3312L399.331 120L446 166.669L432.669 180L386 133.331L339.331 180L326 166.669L372.669 120L326 73.3312L339.331 60L386 106.669Z" fill="#2E5E88"/>
<path d="M126 378.669L172.669 332L186 345.331L139.331 392L186 438.669L172.669 452L126 405.331L79.3312 452L66 438.669L112.669 392L66 345.331L79.3312 332L126 378.669Z" fill="#2E5E88"/>
<rect x="2" y="2" width="508" height="508" rx="4" stroke="#22282E" stroke-width="4"/>
</svg>
